<svg xmlns="http://www.w3.org/2000/svg" viewBox="0 0 448 512" fill="currentColor">
  <path d="M0 32v448h448V32H0zm243.8 349.4c0 43.6-25.6 63.5-62.9 63.5-33.7 0-53.2-17.4-63.2-38.5l34.3-20.7c6.6 11.7 12.6 21.6 27.1 21.6 13.8 0 22.6-5.4 22.6-26.5V237.7h42.1v143.7zm99.6 63.5c-39.1 0-64.4-18.6-76.7-43l34.3-19.8c9 14.7 20.8 25.6 41.5 25.6 17.4 0 28.6-8.7 28.6-20.8 0-14.4-11.4-19.5-30.7-28.7-40.5-20.8-67.4-47.2-67.4-85.8 0-42.3 30.8-74.4 73.8-74.4 32.1 0 55.1 11.1 71.6 40.1l-33.7 19.4c-7.2-12.4-14.9-17.4-27.9-17.4-19.8 0-31.6 12.6-31.6 28.9 0 17.4 11.8 22.8 33.1 33.6 42.7 21.8 66.8 47.2 66.8 87.2 0 48.7-36.9 78.4-88.9 78.4z"/>
</svg>
