<svg xmlns="http://www.w3.org/2000/svg" viewBox="0 0 448 512" fill="currentColor">
  <path d="M224 508c-6.7 0-13.5-1.8-19.4-5.2l-61.7-36.5c-3.9-2.3-4.1-6.5-4.1-6.7l-.7-108.6c0-.4.1-.9.4-1.2l38.8-44.4c.6-.7 1.4-1.1 2.2-1.1h24.5c.8 0 1.6.4 2.2 1.1l38.8 44.4c.3.4.4.8.4 1.2l-.7 108.6c0 .2-.2 4.4-4.1 6.7l-61.7 36.5c-5.9 3.4-12.7 5.2-19.4 5.2zM224 0C100.3 0 0 100.3 0 224s100.3 224 224 224 224-100.3 224-224S347.7 0 224 0zm0 400c-97.1 0-176-78.9-176-176s78.9-176 176-176 176 78.9 176 176-78.9 176-176 176z"/>
</svg>
