<svg xmlns="http://www.w3.org/2000/svg" viewBox="0 0 512 512" fill="currentColor">
  <path d="M418.2 177.2c-5.4-1.8-10.8-3.5-16.2-5.1.9-3.7 1.7-7.4 2.5-11.1 12.3-59.6 4.2-107.5-23.1-123.3-26.3-15.1-69.2.6-112.6 38.4-4.3 3.7-8.5 7.6-12.5 11.5-2.7-2.6-5.5-5.2-8.3-7.7-43.5-37.8-86.3-53.3-112.6-38.4-27.3 15.8-35.4 63.7-23.1 123.3.9 3.7 1.7 7.4 2.5 11.1-5.4 1.6-10.8 3.3-16.2 5.1C38.3 196.2 0 225.4 0 255.6c0 30.2 38.3 59.4 93.4 78.4 5.4 1.8 10.8 3.5 16.2 5.1-.9 3.7-1.7 7.4-2.5 11.1-12.3 59.6-4.2 107.5 23.1 123.3 26.3 15.1 69.2-.6 112.6-38.4 4.3-3.7 8.5-7.6 12.5-11.5 2.7 2.6 5.5 5.2 8.3 7.7 43.5 37.8 86.3 53.3 112.6 38.4 27.3-15.8 35.4-63.7 23.1-123.3-.9-3.7-1.7-7.4-2.5-11.1 5.4-1.6 10.8-3.3 16.2-5.1 55.1-19 93.4-48.2 93.4-78.4-.1-30.2-38.4-59.4-93.5-78.4zM282.9 92.3c37.2-32.4 71.9-45.1 87.7-36 16.9 9.7 18.5 57.3 10.8 121.9-2.1 18.5-4.8 38.9-7.8 59.9-19.6-4.6-38.9-8.1-57.7-10.6-34.8 29.3-69.6 52.5-102.9 68.4-3.7-19.5-7.1-39.1-10.2-58.6-1.4-10.3-2.7-20.4-3.8-30.2 14.8-12.6 29.2-26.5 42.6-41.4 3.7-3.7 7.4-7.5 11.1-11.3zM167.2 307.5c5.1 8.7 10.3 17.4 15.8 25.9-15.6-1.7-31.1-4.2-46.4-7.5 4.4-14.4 9.9-29.3 16.3-44.5 4.6 8.8 9.3 17.5 14.3 26.1zm-30.3-120c3.4-25.4 8.2-48.3 14.6-67.6 12.3 8.7 25.2 18.9 38.6 30.3-2.3 32.7-4.8 61.2-7.3 85.6-16.1-16.9-30.9-32.5-45.9-48.3zm-15.8 134.3c-4.4-12.2-8.5-24.8-12.3-37.8 21.9 5.9 43.1 12.4 63.5 19.3-1.6 13.2-3.4 26.1-5.3 38.8-15.6-6.7-30.8-13.1-45.9-20.3zm116.6 47.3c-12.1-2.8-23.9-5.8-35.4-9.1 2.1-13.9 4.2-28.1 6.3-42.4 18.7 6.5 36.9 13.6 54.5 21.1-2.6 10.3-5.2 20.6-7.8 30.9-6.2 1.9-12.4 3.8-18.6 5.5zM320.5 180c-3.7-3.7-7.4-7.5-11.1-11.3-13.4 14.9-27.8 28.8-42.6 41.4 1.1 9.8 2.4 19.9 3.8 30.2 3.1 19.5 6.5 39.1 10.2 58.6 33.3-15.9 68.1-39.1 102.9-68.4 18.8 2.5 38.1 6 57.7 10.6-3-21-5.7-41.4-7.8-59.9-7.7-64.6-6.1-112.2 10.8-121.9 15.8-9.1 50.5 3.6 87.7 36 3.7 3.7 7.4 7.5 11.1 11.3zM256.2 358.3c-10.3-19.8-20.4-40.1-30.3-60.8 9.5 1.3 19.2 2.6 28.9 3.8 1.1 10.3 2.4 20.4 3.8 30.2 6.4 15.2 11.9 30.1 16.3 44.5-6.2 1.4-12.4 2.8-18.7 4.3zM256.2 153.7c-6.2-1.4-12.4-2.8-18.7-4.3-4.4 14.4-9.9 29.3-16.3 44.5-1.4 10.3-2.7 20.4-3.8 30.2-9.7 1.2-19.4 2.5-28.9 3.8-9.9-20.7-20-41-30.3-60.8 10.3 19.8 20.4 40.1 30.3 60.8 9.5-1.3 19.2-2.6 28.9-3.8 1.1-10.3 2.4-20.4 3.8-30.2 6.4-15.2 11.9-30.1 16.3-44.5zM256.2 358.3c-10.3-19.8-20.4-40.1-30.3-60.8 9.5 1.3 19.2 2.6 28.9 3.8 1.1 10.3 2.4 20.4 3.8 30.2 6.4 15.2 11.9 30.1 16.3 44.5-6.2 1.4-12.4 2.8-18.7 4.3z"/>
</svg>
